# File created by Blade
# Date/Time:  Thu Jan 15 19:03:44 2015
#---------------------------------------------------------
:version 1.10
:name HOM
:units
  mass 1.0
  length 1.000000
  angle deg
:documentation
     Acclaim Skeleton File
:root
   axis xyz
   order TX TY TZ RX RY RZ
   position 0.000000 0.000000 0.000000
   orientation 0 0 0
:bonedata
   begin
      id 1
      name Spine_dum
      direction 0.000000 1.000000 0.000000
      length 4.354460
      axis 0.0 0.0 0.0 xyz
   end
   begin
      id 2
      name LeftUpLeg_dum
      direction 1.000000 0.000000 0.000000
      length 4.291077
      axis 0.0 0.0 0.0 xyz
   end
   begin
      id 3
      name RightUpLeg_dum
      direction -1.000000 0.000000 0.000000
      length 4.291077
      axis 0.0 0.0 0.0 xyz
   end
   begin
      id 4
      name Spine
      direction 0.000000 1.000000 0.000000
      length 0.000000
      axis 0.0 0.0 0.0 xyz
      dof rx ry rz
   end
   begin
      id 5
      name Spine_dum1
      direction 0.000000 1.000000 0.000000
      length 16.581769
      axis 0.0 0.0 0.0 xyz
   end
   begin
      id 6
      name Spine_dum2
      direction 0.000000 1.000000 0.000000
      length 12.903700
      axis 0.0 0.0 0.0 xyz
   end
   begin
      id 7
      name Spine_dum3
      direction 0.000000 1.000000 0.000000
      length 12.903700
      axis 0.0 0.0 0.0 xyz
   end
   begin
      id 8
      name Head
      direction 0.000000 1.000000 0.000000
      length 4.527550
      axis 0.0 0.0 0.0 xyz
      dof rx ry rz
   end
   begin
      id 9
      name LeftShoulder
      direction 1.000000 0.000000 0.000000
      length 6.942033
      axis 0.0 0.0 -90.0 xyz
      dof rx ry rz
   end
   begin
      id 10
      name LeftArm
      direction 1.000000 0.000000 0.000000
      length 11.010391
      axis 0.0 0.0 -90.0 xyz
      dof rx ry rz
   end
   begin
      id 11
      name LeftForeArm
      direction 1.000000 0.000000 0.000000
      length 8.054994
      axis 0.0 0.0 -90.0 xyz
      dof rz ry rx
   end
   begin
      id 12
      name LeftHand
      direction 0.000000 0.000000 0.000000
      length 0.000000
      axis 0.0 0.0 -90.0 xyz
      dof rx ry rz
   end
   begin
      id 13
      name LeftHand_dum1
      direction 0.000000 0.000000 0.000000
      length 0.000000
      axis 0.0 0.0 -90.0 xyz
   end
   begin
      id 14
      name LeftHand_dum2
      direction 1.000000 0.000000 0.000000
      length 3.937000
      axis 0.0 0.0 -90.0 xyz
   end
   begin
      id 15
      name LeftHandThumb1
      direction 0.000000 0.000000 1.000000
      length 3.937000
      axis 0.0 0.0 -90.0 xyz
      dof rx ry rz
   end
   begin
      id 16
      name RightShoulder
      direction -1.000000 0.000000 0.000000
      length 6.942033
      axis 0.0 0.0 90.0 xyz
      dof rx ry rz
   end
   begin
      id 17
      name RightArm
      direction -1.000000 0.000000 0.000000
      length 11.010391
      axis 0.0 0.0 90.0 xyz
      dof rx ry rz
   end
   begin
      id 18
      name RightForeArm
      direction -1.000000 0.000000 0.000000
      length 8.054994
      axis 0.0 0.0 90.0 xyz
      dof rz ry rx
   end
   begin
      id 19
      name RightHand
      direction 0.000000 0.000000 0.000000
      length 0.000000
      axis 0.0 0.0 90.0 xyz
      dof rx ry rz
   end
   begin
      id 20
      name RightHand_dum1
      direction 0.000000 0.000000 0.000000
      length 0.000000
      axis 0.0 0.0 90.0 xyz
   end
   begin
      id 21
      name RightHand_dum2
      direction -1.000000 0.000000 0.000000
      length 3.937000
      axis 0.0 0.0 90.0 xyz
   end
   begin
      id 22
      name RightHandThumb1
      direction 0.000000 0.000000 1.000000
      length 3.937000
      axis 0.0 0.0 90.0 xyz
      dof rx ry rz
   end
   begin
      id 23
      name LeftUpLeg
      direction 0.000000 -1.000000 0.000000
      length 17.039958
      axis 0.0 0.0 0.0 xyz
      dof rx ry rz
   end
   begin
      id 24
      name LeftLeg
      direction 0.000000 -1.000000 0.000000
      length 16.939743
      axis 0.0 0.0 0.0 xyz
      dof rx ry rz
   end
   begin
      id 25
      name LeftFoot
      direction 0.000000 -0.258819 0.965926
      length 5.235044
      axis 15.0 0.0 0.0 xyz
      dof rx ry rz
   end
   begin
      id 26
      name LeftToeBase
      direction 0.000000 0.000000 1.000000
      length 2.952750
      axis 0.0 0.0 0.0 xyz
      dof rx ry rz
   end
   begin
      id 27
      name RightUpLeg
      direction 0.000000 -1.000000 0.000000
      length 17.039958
      axis 0.0 0.0 0.0 xyz
      dof rx ry rz
   end
   begin
      id 28
      name RightLeg
      direction 0.000000 -1.000000 0.000000
      length 16.939743
      axis 0.0 0.0 0.0 xyz
      dof rx ry rz
   end
   begin
      id 29
      name RightFoot
      direction 0.000000 -0.258819 0.965926
      length 5.235044
      axis 15.0 0.0 0.0 xyz
      dof rx ry rz
   end
   begin
      id 30
      name RightToeBase
      direction 0.000000 0.000000 1.000000
      length 2.952750
      axis 0.0 0.0 0.0 xyz
      dof rx ry rz
   end
:hierarchy
   begin
      root Spine_dum LeftUpLeg_dum RightUpLeg_dum
      Spine_dum Spine
      LeftUpLeg_dum LeftUpLeg
      RightUpLeg_dum RightUpLeg
      Spine Spine_dum1 Spine_dum2 Spine_dum3
      Spine_dum1 Head
      Spine_dum2 LeftShoulder
      Spine_dum3 RightShoulder
      LeftShoulder LeftArm
      LeftArm LeftForeArm
      LeftForeArm LeftHand
      LeftHand LeftHand_dum1 LeftHand_dum2
      LeftHand_dum1 LeftHandThumb1
      RightShoulder RightArm
      RightArm RightForeArm
      RightForeArm RightHand
      RightHand RightHand_dum1 RightHand_dum2
      RightHand_dum1 RightHandThumb1
      LeftUpLeg LeftLeg
      LeftLeg LeftFoot
      LeftFoot LeftToeBase
      RightUpLeg RightLeg
      RightLeg RightFoot
      RightFoot RightToeBase
   end

# File created by Blade
# Date/Time:  Thu Jan 15 19:03:33 2015
# Frame Rate: 120.000 fps
#------------------------------------------------------
:FULLY-SPECIFIED
:DEGREES
2135
root -1.321001 37.254633 -7.848691 -130.770227 27.359131 -149.882074
Spine -11.515788 22.738356 -10.011550
Head -21.732729 20.788343 20.065093
LeftShoulder -4.003879 11.377264 4.453271
LeftArm 14.126552 -8.976001 -77.279038
LeftForeArm -0.000000 -3.254425 15.167041
LeftHand 6.310571 -0.000000 4.863814
LeftHandThumb1 -26.253704 33.147579 0.000000
RightShoulder -18.507449 -6.127521 8.686700
RightArm 9.522672 -28.135912 69.131261
RightForeArm 0.000000 -25.052997 34.068523
RightHand 6.061688 0.000000 10.146363
RightHandThumb1 -24.326973 -32.862282 -0.000000
LeftUpLeg -42.703963 37.211050 -11.575948
LeftLeg -5.607435 -0.000000 0.000000
LeftFoot -16.883869 28.090221 -8.264518
LeftToeBase 18.076481 -0.000000 -0.000000
RightUpLeg 0.753125 -33.481406 -12.486118
RightLeg 88.080635 -0.000000 -0.000000
RightFoot 24.186609 -40.321537 -10.911151
RightToeBase 15.008111 -0.000000 -0.000000
2136
root -1.309407 37.281210 -7.818982 -130.212355 27.388462 -149.470320
Spine -11.777089 22.828262 -10.026890
Head -22.053376 21.008840 20.096484
LeftShoulder -4.023130 11.321658 4.521320
LeftArm 14.112677 -8.865050 -77.229488
LeftForeArm -0.000000 -3.388775 15.082676
LeftHand 6.332273 -0.000000 5.043831
LeftHandThumb1 -26.253704 33.147579 0.000000
RightShoulder -18.478935 -6.141789 8.748760
RightArm 9.638782 -28.762503 68.892250
RightForeArm -0.000000 -24.953852 34.097770
RightHand 6.207456 -0.000000 10.415097
RightHandThumb1 -24.326973 -32.862282 -0.000000
LeftUpLeg -43.113412 37.399407 -11.545734
LeftLeg -5.750633 -0.000000 0.000000
LeftFoot -16.841484 28.064079 -8.377965
LeftToeBase 18.185066 -0.000000 -0.000000
RightUpLeg 1.065950 -33.268313 -12.550736
RightLeg 88.013967 -0.000000 -0.000000
RightFoot 24.369445 -40.358689 -11.002111
RightToeBase 15.139230 -0.000000 -0.000000
2137
root -1.296190 37.306011 -7.789830 -129.673333 27.411413 -149.059282
Spine -12.023291 22.934119 -10.038076
Head -22.365356 21.247843 20.111439
LeftShoulder -3.994046 11.291372 4.615711
LeftArm 14.077183 -8.990541 -77.260850
LeftForeArm -0.000000 -3.380986 15.085849
LeftHand 6.314343 -0.000000 5.066981
LeftHandThumb1 -26.253704 33.147579 0.000000
RightShoulder -18.457346 -6.167705 8.817225
RightArm 9.754478 -29.327612 68.653031
RightForeArm 0.000000 -24.884616 34.137714
RightHand 6.281299 -0.000000 10.653040
RightHandThumb1 -24.326973 -32.862282 -0.000000
LeftUpLeg -43.443516 37.563858 -11.455866
LeftLeg -5.949940 -0.000000 0.000000
LeftFoot -16.785162 28.090078 -8.476768
LeftToeBase 18.353012 -0.000000 -0.000000
RightUpLeg 1.399987 -33.038765 -12.628873
RightLeg 87.944026 -0.000000 -0.000000
RightFoot 24.460418 -40.455697 -11.016988
RightToeBase 15.190886 -0.000000 -0.000000
2138
root -1.284504 37.331686 -7.757948 -129.102679 27.403504 -148.628519
Spine -12.304525 23.041068 -10.039018
Head -22.687061 21.479956 20.144462
LeftShoulder -3.933840 11.261723 4.720048
LeftArm 14.056096 -9.377496 -77.359781
LeftForeArm 0.000000 -3.130922 15.064153
LeftHand 6.388003 -0.000000 4.831660
LeftHandThumb1 -26.253704 33.147579 0.000000
RightShoulder -18.414749 -6.138429 8.868106
RightArm 9.778942 -29.886148 68.469152
RightForeArm -0.000000 -24.854809 34.134601
RightHand 6.386806 -0.000000 10.836520
RightHandThumb1 -24.326973 -32.862282 -0.000000
LeftUpLeg -43.835014 37.723974 -11.368658
LeftLeg -6.114726 -0.000000 0.000000
LeftFoot -16.758240 28.117027 -8.569699
LeftToeBase 18.507162 -0.000000 -0.000000
RightUpLeg 1.684526 -32.797264 -12.642682
RightLeg 87.880821 -0.000000 -0.000000
RightFoot 24.587601 -40.595774 -11.058452
RightToeBase 15.085791 -0.000000 -0.000000
2139
root -1.270790 37.356732 -7.722663 -128.526995 27.372501 -148.192689
Spine -12.581979 23.139643 -10.026981
Head -23.022213 21.684990 20.188725
LeftShoulder -3.903516 11.196430 4.855545
LeftArm 14.018468 -9.398315 -77.372624
LeftForeArm -0.000000 -3.071738 15.020698
LeftHand 6.419301 -0.000000 4.836147
LeftHandThumb1 -26.253704 33.147579 0.000000
RightShoulder -18.419844 -6.095201 8.910749
RightArm 9.832227 -30.517279 68.277072
RightForeArm 0.000000 -24.841594 34.131581
RightHand 6.420217 0.000000 11.087374
RightHandThumb1 -24.326973 -32.862282 -0.000000
LeftUpLeg -44.212591 37.856479 -11.244313
LeftLeg -6.300422 -0.000000 0.000000
LeftFoot -16.704794 28.216208 -8.638559
LeftToeBase 18.649750 -0.000000 -0.000000
RightUpLeg 1.951984 -32.558260 -12.618828
RightLeg 87.817310 -0.000000 -0.000000
RightFoot 24.743656 -40.786346 -11.090076
RightToeBase 14.833689 -0.000000 -0.000000
